
<svg xmlns="http://www.w3.org/2000/svg"
     class="svg-snoweb svg-theme-light"
     x="0"
     y="0"
     width="100%"
     height="100%"
     viewBox="0 0 100 100"
     preserveAspectRatio="xMidYMid meet"
>
<defs>
    <style>
        
            
            
            
        

        .svg-fill-primary {
            fill: #090D49;
        }

        .svg-fill-secondary {
            fill: #65CDAE;
        }

        .svg-fill-tertiary {
            fill: #E5E7EB;
        }

        .svg-stroke-primary {
            stroke: #090D49;
        }

        .svg-stroke-secondary {
            stroke: #65CDAE;
        }

        .svg-stroke-tertiary {
            stroke: #E5E7EB;
        }
    </style>
</defs>
    <path d="M26,30a8,8,0,0,0-8,8V70a7.9,7.9,0,0,0,8,8H74a7.9,7.9,0,0,0,8-8V38a8,8,0,0,0-8-8H67.7a4.5,4.5,0,0,1-2.9-1.2l-4.4-4.5A8.1,8.1,0,0,0,54.7,22H45.3a8.1,8.1,0,0,0-5.7,2.3l-4.4,4.5A4.5,4.5,0,0,1,32.3,30ZM50,66A12,12,0,1,0,38,54,12,12,0,0,0,50,66Z"
          class="svg-fill-primary" fill-rule="evenodd"/>
</svg>