
<svg xmlns="http://www.w3.org/2000/svg"
     class="svg-snoweb svg-theme-light"
     x="0"
     y="0"
     width="100%"
     height="100%"
     viewBox="0 0 100 100"
     preserveAspectRatio="xMidYMid meet"
>
<defs>
    <style>
        
            
            
            
        

        .svg-fill-primary {
            fill: #090D49;
        }

        .svg-fill-secondary {
            fill: #65CDAE;
        }

        .svg-fill-tertiary {
            fill: #E5E7EB;
        }

        .svg-stroke-primary {
            stroke: #090D49;
        }

        .svg-stroke-secondary {
            stroke: #65CDAE;
        }

        .svg-stroke-tertiary {
            stroke: #E5E7EB;
        }
    </style>
</defs>
    <path d="M82,50A32,32,0,1,1,50,18,32,32,0,0,1,82,50ZM50,38a4,4,0,0,0-3.5,2,4,4,0,0,1-5.4,1.5A4,4,0,0,1,39.6,36,12,12,0,0,1,62,42a11.9,11.9,0,0,1-8,11.3V54a4,4,0,0,1-8,0V50a4,4,0,0,1,4-4,4,4,0,0,0,0-8Zm0,32a4,4,0,1,0-4-4A4,4,0,0,0,50,70Z"
          class="svg-fill-primary" fill-rule="evenodd"/>
</svg>