
<svg xmlns="http://www.w3.org/2000/svg"
     class="svg-snoweb svg-theme-light"
     x="0"
     y="0"
     width="100%"
     height="100%"
     viewBox="0 0 100 100"
     preserveAspectRatio="xMidYMid meet"
>
<defs>
    <style>
        
            
            
            
        

        .svg-fill-primary {
            fill: #090D49;
        }

        .svg-fill-secondary {
            fill: #65CDAE;
        }

        .svg-fill-tertiary {
            fill: #E5E7EB;
        }

        .svg-stroke-primary {
            stroke: #090D49;
        }

        .svg-stroke-secondary {
            stroke: #65CDAE;
        }

        .svg-stroke-tertiary {
            stroke: #E5E7EB;
        }
    </style>
</defs>
    <path d="M34,18a8,8,0,0,0-8,8V74a8,8,0,0,0,8,8H66a8,8,0,0,0,8-8V39.6A7.9,7.9,0,0,0,71.7,34L58,20.3A7.9,7.9,0,0,0,52.3,18ZM54,42a4,4,0,0,0-8,0V56.3l-5.2-5.1a4,4,0,0,0-5.6,5.6l12,12a3.9,3.9,0,0,0,5.6,0l12-12a4,4,0,0,0-5.6-5.6L54,56.3Z"
          class="svg-fill-primary" fill-rule="evenodd"/>
</svg>