
<svg xmlns="http://www.w3.org/2000/svg"
     class="svg-snoweb svg-theme-light"
     x="0"
     y="0"
     width="100%"
     height="100%"
     viewBox="0 0 100 100"
     preserveAspectRatio="xMidYMid meet"
>
<defs>
    <style>
        
            
            
            
        

        .svg-fill-primary {
            fill: #090D49;
        }

        .svg-fill-secondary {
            fill: #65CDAE;
        }

        .svg-fill-tertiary {
            fill: #E5E7EB;
        }

        .svg-stroke-primary {
            stroke: #090D49;
        }

        .svg-stroke-secondary {
            stroke: #65CDAE;
        }

        .svg-stroke-tertiary {
            stroke: #E5E7EB;
        }
    </style>
</defs>
    <path d="M46,18a4,4,0,0,0-3.6,2.2L39.5,26H26a4,4,0,0,0,0,8V74a8,8,0,0,0,8,8H66a8,8,0,0,0,8-8V34a4,4,0,0,0,0-8H60.5l-2.9-5.8A4,4,0,0,0,54,18ZM38,42a4,4,0,0,1,8,0V66a4,4,0,0,1-8,0Zm20-4a4,4,0,0,0-4,4V66a4,4,0,0,0,8,0V42A4,4,0,0,0,58,38Z"
          class="svg-fill-primary" fill-rule="evenodd"/>
</svg>